<?xml version="1.0" encoding="UTF-8" standalone="no"?>
<!-- Created with Inkscape (http://www.inkscape.org/) -->

<svg
   xmlns:dc="http://purl.org/dc/elements/1.1/"
   xmlns:cc="http://creativecommons.org/ns#"
   xmlns:rdf="http://www.w3.org/1999/02/22-rdf-syntax-ns#"
   xmlns:svg="http://www.w3.org/2000/svg"
   xmlns="http://www.w3.org/2000/svg"
   xmlns:sodipodi="http://sodipodi.sourceforge.net/DTD/sodipodi-0.dtd"
   xmlns:inkscape="http://www.inkscape.org/namespaces/inkscape"
   width="150mm"
   height="150mm"
   viewBox="0 0 150 150"
   version="1.1"
   id="svg8"
   inkscape:version="0.92.3 (2405546, 2018-03-11)"
   sodipodi:docname="AzizFoots.svg">
  <defs
     id="defs2">
    <marker
       style="overflow:visible"
       refY="0"
       refX="0"
       orient="auto"
       id="DistanceX">
      <path
         id="path817"
         style="stroke:#000000;stroke-width:0.5"
         d="M 3,-3 -3,3 M 0,-5 V 5"
         inkscape:connector-curvature="0" />
    </marker>
    <pattern
       y="0"
       x="0"
       width="8"
       patternUnits="userSpaceOnUse"
       id="Hatch"
       height="8">
      <path
         id="path820"
         stroke-width="0.25"
         stroke="#000000"
         linecap="square"
         d="M8 4 l-4,4" />
      <path
         id="path822"
         stroke-width="0.25"
         stroke="#000000"
         linecap="square"
         d="M6 2 l-4,4" />
      <path
         id="path824"
         stroke-width="0.25"
         stroke="#000000"
         linecap="square"
         d="M4 0 l-4,4" />
    </pattern>
    <symbol
       id="*MODEL_SPACE" />
    <symbol
       id="*PAPER_SPACE" />
  </defs>
  <sodipodi:namedview
     id="base"
     pagecolor="#ffffff"
     bordercolor="#666666"
     borderopacity="1.0"
     inkscape:pageopacity="0.0"
     inkscape:pageshadow="2"
     inkscape:zoom="0.85964912"
     inkscape:cx="215.23247"
     inkscape:cy="237.41611"
     inkscape:document-units="mm"
     inkscape:current-layer="layer1"
     showgrid="false"
     inkscape:window-width="1600"
     inkscape:window-height="837"
     inkscape:window-x="1272"
     inkscape:window-y="-8"
     inkscape:window-maximized="1"
     inkscape:snap-object-midpoints="true" />
  <metadata
     id="metadata5">
    <rdf:RDF>
      <cc:Work
         rdf:about="">
        <dc:format>image/svg+xml</dc:format>
        <dc:type
           rdf:resource="http://purl.org/dc/dcmitype/StillImage" />
        <dc:title />
      </cc:Work>
    </rdf:RDF>
  </metadata>
  <g
     inkscape:label="Layer 1"
     inkscape:groupmode="layer"
     id="layer1"
     transform="translate(0,-147)">
    <g
       id="g986"
       transform="translate(-47.661793,2.1763376)">
      <path
         d="m 102.90735,203.64201 v 24.5801 m 0,-24.5801 a 1.9999999,1.9999999 0 0 0 -2,-1.99999 m -21.000003,0 h 21.000003 m -23.000002,-2.00001 a 1.9999999,1.9999999 0 0 0 1.999999,2.00001 m -1.999999,-37.97961 v 35.9796 m 1.999999,-37.97959 a 1.9999999,1.9999999 0 0 0 -1.999999,1.99999 m 43.000002,-1.99999 H 79.907347 m 23.000003,66.55969 c 6.66666,6.38551 13.33333,6.38551 20,0 v -64.5597 c -10e-6,-1.10456 -0.89544,-1.99999 -2,-1.99999"
         style="fill:none;stroke:#ff0000;stroke-width:0.26458332"
         id="path942"
         inkscape:connector-curvature="0" />
      <path
         id="path944"
         style="fill:none;stroke:#0000ff;stroke-width:0.26458332"
         d="m 90.407347,171.65732 a 2.5000005,2.5000005 0 1 0 -5.000001,0 2.5000005,2.5000005 0 1 0 5.000001,0 z"
         inkscape:connector-curvature="0" />
      <path
         id="path950"
         style="fill:none;stroke:#0000ff;stroke-width:0.26458332"
         d="m 90.407347,191.64712 a 2.5000005,2.5000005 0 1 0 -5.000001,0 2.5000005,2.5000005 0 1 0 5.000001,0 z"
         inkscape:connector-curvature="0" />
      <path
         inkscape:connector-curvature="0"
         d="m 115.91098,171.65732 a 2.998531,2.998531 0 1 0 -5.99706,0 2.998531,2.998531 0 1 0 5.99706,0 z"
         style="fill:none;stroke:#0000ff;stroke-width:0.31734449"
         id="path1417" />
      <path
         inkscape:connector-curvature="0"
         d="m 115.91098,191.64712 a 2.998531,2.998531 0 1 0 -5.99706,0 2.998531,2.998531 0 1 0 5.99706,0 z"
         style="fill:none;stroke:#0000ff;stroke-width:0.31734449"
         id="path1419" />
    </g>
    <g
       transform="matrix(-1,0,0,1,198.15291,2.1763376)"
       id="g998">
      <path
         inkscape:connector-curvature="0"
         id="path988"
         style="fill:none;stroke:#ff0000;stroke-width:0.26458332"
         d="m 102.90735,203.64201 v 24.5801 m 0,-24.5801 c -10e-6,-1.10457 -0.89543,-1.99999 -2,-1.99999 m -21.000003,0 h 21.000003 m -23.000002,-2.00001 c -6e-6,1.10457 0.895426,2.00001 1.999999,2.00001 m -1.999999,-37.97961 v 35.9796 m 1.999999,-37.97959 c -1.104565,0 -1.999994,0.89542 -1.999999,1.99999 m 43.000002,-1.99999 H 79.907347 m 23.000003,66.55969 c 6.66666,6.38551 13.33333,6.38551 20,0 m 0,-64.5597 c -10e-6,-1.10456 -0.89544,-1.99999 -2,-1.99999"
         sodipodi:nodetypes="cccccccccccccccccc" />
      <path
         inkscape:connector-curvature="0"
         d="m 90.407347,171.65732 a 2.5000005,2.5000005 0 1 0 -5.000001,0 2.5000005,2.5000005 0 1 0 5.000001,0 z"
         style="fill:none;stroke:#0000ff;stroke-width:0.26458332"
         id="path990" />
      <path
         inkscape:connector-curvature="0"
         d="m 90.407347,191.64712 a 2.5000005,2.5000005 0 1 0 -5.000001,0 2.5000005,2.5000005 0 1 0 5.000001,0 z"
         style="fill:none;stroke:#0000ff;stroke-width:0.26458332"
         id="path996" />
      <path
         id="path1421"
         style="fill:none;stroke:#0000ff;stroke-width:0.31734449"
         d="m 115.91098,191.64712 a 2.998531,2.998531 0 1 0 -5.99706,0 2.998531,2.998531 0 1 0 5.99706,0 z"
         inkscape:connector-curvature="0" />
      <path
         id="path1423"
         style="fill:none;stroke:#0000ff;stroke-width:0.31734449"
         d="m 115.91098,171.65732 a 2.998531,2.998531 0 1 0 -5.99706,0 2.998531,2.998531 0 1 0 5.99706,0 z"
         inkscape:connector-curvature="0" />
    </g>
    <g
       transform="rotate(-180,76.576452,220.89298)"
       id="g1010">
      <path
         inkscape:connector-curvature="0"
         id="path1000"
         style="fill:none;stroke:#ff0000;stroke-width:0.26458332"
         d="m 102.90735,203.64201 v 24.5801 m 0,-24.5801 a 1.9999999,1.9999999 0 0 0 -2,-1.99999 m -21.000003,0 h 21.000003 m -23.000002,-2.00001 a 1.9999999,1.9999999 0 0 0 1.999999,2.00001 m -1.999999,-37.97961 v 35.9796 m 1.999999,-37.97959 a 1.9999999,1.9999999 0 0 0 -1.999999,1.99999 m 43.000002,-1.99999 H 79.907347 m 23.000003,66.55969 c 6.66666,6.38551 13.33333,6.38551 20,0 v -64.5597 c -10e-6,-1.10456 -0.89544,-1.99999 -2,-1.99999" />
      <path
         inkscape:connector-curvature="0"
         d="m 115.41245,171.65732 a 2.5000003,2.5000003 0 1 0 -5,0 2.5000003,2.5000003 0 1 0 5,0 z"
         style="fill:none;stroke:#0000ff;stroke-width:0.26458332"
         id="path1004" />
      <path
         inkscape:connector-curvature="0"
         d="m 115.41245,191.64712 a 2.5000003,2.5000003 0 1 0 -5,0 2.5000003,2.5000003 0 1 0 5,0 z"
         style="fill:none;stroke:#0000ff;stroke-width:0.26458332"
         id="path1006" />
      <path
         id="path1429"
         style="fill:none;stroke:#0000ff;stroke-width:0.31749991"
         d="m 90.907347,171.65732 a 3,3 0 1 0 -6,0 3,3 0 1 0 6,0 z"
         inkscape:connector-curvature="0" />
      <path
         id="path1431"
         style="fill:none;stroke:#0000ff;stroke-width:0.31749991"
         d="m 90.907347,191.64712 a 3,3 0 1 0 -6,0 3,3 0 1 0 6,0 z"
         inkscape:connector-curvature="0" />
    </g>
    <g
       id="g1022"
       transform="matrix(1,0,0,-1,-2.661792,441.78596)">
      <path
         d="m 102.90735,203.64201 v 24.5801 m 0,-24.5801 c -10e-6,-1.10457 -0.89543,-1.99999 -2,-1.99999 m -21.000003,0 h 21.000003 m -23.000002,-2.00001 c -6e-6,1.10457 0.895426,2.00001 1.999999,2.00001 m 0,-39.9796 c -1.104565,0 -1.999994,0.89542 -1.999999,1.99999 m 43.000002,-1.99999 H 79.907347 m 23.000003,66.55969 c 6.66666,6.38551 13.33333,6.38551 20,0 v -64.5597 c -10e-6,-1.10456 -0.89544,-1.99999 -2,-1.99999"
         style="fill:none;stroke:#ff0000;stroke-width:0.26458332"
         id="path1012"
         inkscape:connector-curvature="0"
         sodipodi:nodetypes="cccccccccccccccc" />
      <path
         id="path1016"
         style="fill:none;stroke:#0000ff;stroke-width:0.26458332"
         d="m 115.41245,171.65732 a 2.5000003,2.5000003 0 1 0 -5,0 2.5000003,2.5000003 0 1 0 5,0 z"
         inkscape:connector-curvature="0" />
      <path
         id="path1018"
         style="fill:none;stroke:#0000ff;stroke-width:0.26458332"
         d="m 115.41245,191.64712 a 2.5000003,2.5000003 0 1 0 -5,0 2.5000003,2.5000003 0 1 0 5,0 z"
         inkscape:connector-curvature="0" />
      <path
         inkscape:connector-curvature="0"
         d="m 90.907347,191.64712 a 3,3 0 1 0 -6,0 3,3 0 1 0 6,0 z"
         style="fill:none;stroke:#0000ff;stroke-width:0.31749991"
         id="path1425" />
      <path
         inkscape:connector-curvature="0"
         d="m 90.907347,171.65732 a 3,3 0 1 0 -6,0 3,3 0 1 0 6,0 z"
         style="fill:none;stroke:#0000ff;stroke-width:0.31749991"
         id="path1427" />
    </g>
  </g>
</svg>
